# xmcd
#
# Track frame offsets:
#  150
#  14476
#  26954
#  43455
#  58911
#  74134
#  97783
#  113288
#  128216
#  154405
#  168363
#  179557
#  196563
#  225522
#
# Disc length: 3265 seconds
#
# Revision: 1
# Processed by: cddbd v1.5.1PL2 Copyright (c) Steve Scherf et al.
# Submitted via: Collectorz.com_Music_Collector 6.11
#
DISCID=c10cbf0e
DTITLE=Seppo Valjakka - Blackbird
DYEAR=2001
DGENRE=Blues
TTITLE0=Tulsa Time
TTITLE1=Stepping Out
TTITLE2=Crosscut Saw
TTITLE3=Hideaway
TTITLE4=Oh Pretty Woman
TTITLE5=White Room
TTITLE6=I Know A Little
TTITLE7=Strange Brew
TTITLE8=Sensitive Kind
TTITLE9=Born Under A Bad Sign
TTITLE10=Oh Well Part One
TTITLE11=We Ain't Much Different
TTITLE12=Rambling On My Mind
TTITLE13=Blackbird
EXTD=
EXTT0=
EXTT1=
EXTT2=
EXTT3=
EXTT4=
EXTT5=
EXTT6=
EXTT7=
EXTT8=
EXTT9=
EXTT10=
EXTT11=
EXTT12=
EXTT13=
PLAYORDER=
